<svg xmlns="http://www.w3.org/2000/svg" xmlns:xlink="http://www.w3.org/1999/xlink" preserveAspectRatio="none" width="275" height="57"><defs><path id="b" stroke="#665CFF" stroke-width="3" stroke-linejoin="round" stroke-linecap="round" fill="none" d="M0 47.8h38m21 0h72m24 0h120"/><g id="a"><path fill="#665CFF" d="M43.2 23.9q1-3.65 1-7.05-.1-5-2.2-8.75-2.15-3.85-5.85-5.95Q32.45.05 27.8 0q-3.4 0-5.85.55-2.4.55-4.25 1.45-1.85.85-3.45 1.9-3.75 2.55-6.55 6.25-2.7 3.7-4.2 8.1Q2 22.65 2 27.4q0 2.95.7 5.2.75 2.3 1.75 3.85 1.1 1.6 2.1 2.6Q8.5 41 11.5 42.1q2.95 1.05 6.4 1.1 5.5-.1 9.85-1.75 4.3-1.65 7.35-4.3 3.05-2.7 5.05-6.15 2.05-3.45 3.05-7.1M31.05 4.85q1.4 1.45 2 3.45.55 2.05.55 4.05 0 2.85-.65 6.35-.65 3.55-1.8 7.15-1.2 3.6-2.85 6.65-1.65 3.05-3.65 4.9-1.5 1.35-2.9 1.95-1.45.65-3.4.65-1.2 0-2.4-.75-1.2-.7-2-2-.7-1.1-1.1-2.55-.4-1.45-.4-3.65 0-4.25.9-8.7 1-4.45 2.8-8.4 1.75-4 4.3-6.9Q22.4 4.9 24.1 4.1q1.7-.75 3.25-.7 2.35.05 3.7 1.45m32.2 8.7q-1.05.1-2.35.25-.15 0-.35-.15-.2-.1-.2-.25.1-.85.2-1.75t.1-1.3q-.05-.45-.85-1.1-.8-.65-1.75-1.15-1-.5-1.65-.55-.65.05-1.5.55-.85.55-1.4 1.15-.35.4-.65.9-.25.5-.6 1.5-.3 1-.8 3.05-.05.2-.3.4-.2.2-.45.25-.65.25-1.65.65-1 .4-1.95.8-.9.45-1.2.7-.15.1-.5.7-.3.5-.65 1.15-.3.6-.3.9.05.35.45.5.4.2.7.1l4.5-1.5q.2-.05.3.3.1.35.1.6-.55 2.4-1.35 5.65-.75 3.25-1.55 6.8-.9 3.55-1.7 6.9-.9 3.35-1.55 6-.75 2.65-1.25 4.05-.45 1.45-1.35 2.15-.85.7-3.05 1.2-.75.2-1.45 1-.7.75-.75 1.45 0 .5.55.7.55.2 1.7.2.8 0 1.95-.05t1.95-.05q1.4 0 3.25.1 1.95.05 3.8.2 1.9.1 3.2.15 1.3.1 1.4.1 1.4-.05 2-.65.6-.6.6-1.2-.05-.5-.7-.95-.6-.45-1.2-.55-2.35-.5-2.95-1.4-.55-.95-.2-2.3.4-1.9.9-3.7.5-1.8.85-3.65.05-.1.3-.3.3-.2.5-.15.9.45 1.65.7.75.25 1.35.25 1.3 0 2.9-.6 1.55-.65 3.05-1.5 1.45-.9 2.6-1.65 1.6-1.2 3.7-3.75 2.05-2.55 3.65-5.95 1.55-3.4 1.6-7.15.05-1.9-.8-3.95-.85-2.05-2.9-3.45-2-1.45-5.45-1.5-1.45 0-2.5.15M61.8 17.6q1.1-.1 1.75-.1 1.15-.05 1.9.95.7.95.75 3.25 0 .7-.3 2.25-.35 1.6-.8 3.45-.5 1.85-1.05 3.45-.5 1.65-.9 2.4-.5.95-1.4 2.4-.9 1.5-2 2.65-1.15 1.15-2.3 1.25-.45-.05-1.15-.7-.7-.7-1.1-1.7-.05-.2-.1-.7-.05-.5-.05-.6.45-1.85 1.2-4.9.75-3 1.5-6.15.8-3.15 1.3-5.5.1-.4.5-.9.45-.5.55-.6.6-.1 1.7-.2m61.3 1.1q.8.05.95.65.15.55.1.85-.2 1.05-.95 3.3t-1.75 4.95q-1 2.7-2 5.1-.95 2.4-1.55 3.8-.6 1.4-.7 2.15-.1.7.1 1.3.1.5.8 1.25.75.8 1.95.85 2.45 0 4.75-.95 2.35-.95 4.35-2.35 2-1.4 3.35-2.85.65-.7 1.1-1.55.4-.9.4-1.55t-.5-.95q-.4-.35-.8-.1-.7.6-1.7 1.2-.95.65-1.75 1.1-.85.45-1.2.5-.25-.05-.5-.4-.2-.3-.1-.7 1.2-3.15 2.3-6.05 1.05-2.95 1.8-5.65.45-1.45.6-2.45.15-1 .15-2.05-.05-2.15-1.35-3.6-1.25-1.35-2.85-1.45-1.9.05-3.4.7-1.5.6-2.95 1.65-1.85 1.3-4.1 3.45-2.25 2.15-3.95 4.2-.25.25-.45.2-.2-.05-.1-.25.35-.95.8-2.2.45-1.25.8-2.45.35-1.2.35-2.05 0-.6-.35-1.4-.35-.7-1-1.25-.75-.55-1.85-.6-2.4.05-4.5 1-2.1.9-3.6 2.35-1.3 1.2-2 2.45-.15-1.45-1-2.65-.95-1.4-2.7-2.25-.8-.35-1.75-.6-1-.3-1.95-.3-1.85.05-3.55.5-1.7.5-3.05 1.05-1.4.6-2.25 1.05-2.75 1.85-4.95 4.9-2.15 2.95-3.35 6.5Q76 30.55 76 33.9q0 .5.05 1.1.05.6.1.85.8 3.1 3.05 5.05 2.2 1.95 5.4 2 3.05 0 5.2-.75 2.25-.7 3.85-1.8 1.55-1.05 2.6-2.1.75-.75 1.35-1.65.6-.9.7-1.9-.05-.55-.3-1.1-.3-.5-.55-.55-.25 0-.7.2-.4.2-.85.65-1.9 1.6-3.7 2.6-1.85 1-2.8 1.05-.4 0-1.55-.35t-2.05-1.3q-.45-.5-.6-1.05-.15-.5-.15-.75 0-1.65.15-2.75.1-1.1.25-1.7.1-.2.3-.45.25-.25.5-.3 2.95-.25 6.05-1.05 3.05-.85 5.5-2.35 1.55-.95 2.75-2.6.45-.6.75-1.25.05.2.25.35.4.35 1.45-.15 1.35-.75 2.4-1.3 1-.5 1.9-.55.15 0 .45.45.3.5.05 1.4-.4 1.05-1.2 3.35-.85 2.25-1.85 4.95-1 2.65-1.9 4.8-.55 1.35-.8 2.5-.2 1.15-.2 1.8 0 .75.6 1.55.6.9 1.6 1.5t2.3.6q.4 0 1-.6.6-.65 1.3-1.85.55-1 1.85-3.45t3.05-5.6q1.65-3.1 3.45-6 1.75-2.8 3.35-4.7 1.65-1.95 2.75-2m-34.45 2.15q1.15-2.1 2.45-3.45 1.3-1.35 2.4-1.4.3 0 .75.4t.5 1.3q-.1 2-1.4 3.75-1.25 1.8-3 2.95-1.75 1.2-3.2 1.4-.1-.05-.25-.3-.15-.3-.15-.5.75-2.1 1.9-4.15Z"/><path fill="#000084" d="M166.25 19.15q-1-1.8-2.4-3.15-1.5-1.3-3.4-2.05-1.95-.8-4.25-.8-.95 0-2.05.2-1.1.2-2.15.7-.5.3-1.3.75-.85.5-1.55.9-.75.45-1.05.6-.2.1-.55.05-.3-.1-.4-.3-.05-.8 0-1.7.1-.9.1-1.35-.1-.4-.7-.7-.6-.3-.9-.35-.2 0-.8.2-.6.2-1.35.6l-2.1.9q-1.45.6-2.9 1.15-1.45.6-2.35 1-.55.2-1 .9-.4.6-.4 1.1-.05.25.15.5t.85.75q1.65 1.3 2.15 2.05.5.75.45 1 .05 2.1.05 4.1v4.05q0 1.65-.05 4.45 0 2.75-.1 5.8 0 3.05-.1 5.45-.1 2.45-.15 3.45-.05 1.8-.7 2.7-.65.85-2.7 1.5-1.25.45-1.7 1-.5.55-.5.85 0 .5.65 1t2.1.55q1.45-.05 2.85-.15 1.4-.2 3.05-.3 1.65-.2 3.8-.2h6.05q1.35 0 1.9-.6.55-.55.55-1.15 0-.35-.45-.85-.5-.5-1.65-.9-1.55-.6-2.25-1.15-.7-.55-.9-1.05-.2-.5-.2-.95-.1-1-.1-2.4v-3.7q0-.25.25-.6.25-.3.35-.35.4.1 1 .15h.9q1.1 0 2.65-.25 1.5-.25 3.05-.6 1.5-.4 2.5-.8 3.75-1.6 5.95-4.2 2.1-2.55 3-5.35.9-2.75.85-4.95 0-1.8-.5-3.75-.55-1.95-1.55-3.75m-17.65.2q.6-.35 1.2-.55.65-.2 1.2-.2 2.75.05 4.4 1.75 1.65 1.65 2.4 4.1.7 2.45.7 4.85 0 1.4-.3 3t-.8 3q-.55 1.45-1.25 2.35-.8.9-1.7 1.25-.9.35-1.2.35-1.1-.05-2.45-1-1.4-.95-2.35-2.2-.1-.1-.25-.55-.15-.5-.3-1.7-.1-1.3-.1-3.75V26.9q0-1.8.1-3.5 0-1.65.1-2.85 0-.25.25-.7.25-.4.35-.5m47-4q-3.6-2.1-8.65-2.2-1.35 0-3.3.45-1.9.45-3.9 1.25-1.95.8-3.4 1.95-2.3 1.75-3.9 4.5-1.6 2.7-1.7 6.65 0 1.55.4 3.45.4 1.85 1.3 3.7.9 1.8 2.35 3.25 2.2 2.15 5.2 3.3t6.7 1.15q3.85-.1 6.8-1.3 2.9-1.2 4.75-2.9 1.8-1.55 3.15-4.2 1.4-2.65 1.5-6.85-.05-3.55-1.9-6.8-1.85-3.3-5.4-5.4M186 16.8q1.8 0 3.2 1.6 1.35 1.55 2.15 4.35.75 2.75.75 6.2-.05 4.05-.6 6.05-.6 2-1 2.5-.65.85-1.5 1.3-.85.45-1.45.45-.95-.05-1.9-.6-.9-.5-1.3-.9-.45-.3-1.25-1.6-.75-1.35-1.4-3.7-.65-2.35-.65-5.8 0-2.45.55-4.8.55-2.3 1.4-3.55.5-.65 1.3-1.1.75-.4 1.7-.4m64.3 1.2q.35-.65.35-1v-1.2q0-.8-.1-1.4-.15-.3-.55-.5-.35-.25-.55-.25-.85 0-2.3.1-1.45.1-2.8.2-1.35.05-1.8.05-.35-.05-.55-.35-.25-.3-.25-.55V9.3q0-.5-.35-.95-.4-.45-.7-.45-.35 0-1.1.2-.75.25-1.5.6-.75.4-1.15.8-.9.95-2.1 1.95-1.2 1-2.4 1.9l-2.15 1.55q-.3.15-.55.35l-.4-.4q-.75-.7-1.9-1.2-1.1-.45-2.25-.5-2 .1-3.75 1.35-1.8 1.25-3.3 2.95-.15.25-.4.15-.2-.15-.2-.35l-.15-3.3q0-.3-.35-.8t-.5-.6q-.5 0-1.05.2-.5.1-1.15.4-.75.4-2.1.9-1.3.4-2.75.85-1.4.4-2.5.7-.4.15-.95.8-.55.7-.6 1.5 0 .35.5.9.45.55 1.2 1.25.9.85 1.25 1.4.35.5.3.85v5.5q0 2.8-.05 5.65-.05 2.1-.25 3.1-.15 1-.65 1.4-.5.5-1.55.9-1.1.4-1.5.9-.45.45-.45 1.05 0 .65.8 1t1.75.35q1.4 0 2.75-.1t3.1-.1q1.05 0 2.65.05 1.55.1 3.15.2 1.6.1 2.7.1.7 0 1.55-.4.85-.35.9-1.1-.05-.65-.8-1.15-.8-.5-1.55-.75-1.85-.55-2.55-1.4-.65-.85-.65-2.8-.05-1-.05-3-.05-1.95-.05-4.2v-5.9q0-.35.2-.65.2-.25.5-.45.2-.1.7-.15.5-.1.8-.1.7.05 1.7.7 1.05.7 1.45 1.05.5.35.95.55.45.15.6.15.35 0 .85-.3.55-.25 1.1-.8 1.3-1.05 2.3-2.6.35-.55.6-1.05.4.35.9.55 1.3.3 1.6.65.4.3.3.6 0 3.25-.05 5.65-.05 2.45-.15 4.55-.05 2.1-.05 4.45 0 1.85.25 3.05.3 1.2.7 1.8 1.55 2.15 3.75 2.85 2.15.75 4.2.7.9 0 2.2-.3 1.3-.25 2.65-.7 1.3-.5 2.2-1.2 1.8-1.35 2.3-2.15.5-.9.45-1.65-.05-.45-.35-.75-.3-.35-.5-.35-.3 0-.7.15-.3.15-.75.3-.75.3-1.5.35-.75.1-1.35.05-.85.05-1.5-.2t-1.35-.95q-.65-.7-.95-1.65-.3-.95-.25-2.9l.15-11.05q0-.3.25-.65.2-.3.3-.3 1.2 0 2.95-.05 1.7-.05 3.65-.05.85-.1 1.25-.75m21.25-.3q-.1-1.05-.1-1.75-.05-.25-.55-.85-.45-.6-.8-.75-.55-.2-1.3-.35-.75-.15-1.45-.35-.9-.25-2.1-.4-1.3-.1-2.5-.1-.85 0-2.05.2-1.2.25-2.4.6-1.2.4-2.1.9-1.05.6-2.1 1.65-1 1-1.7 2.55-.7 1.5-.75 3.6.05 1.95.85 3.6.9 1.6 2.2 2.75 1.25 1.2 2.6 1.95 1.05.55 1.65 1 .55.4 1.15.8.6.4 1.55.95 1 .5 1.75 1.45.65.9.7 1.65.05.8-.45 1.65-.45.8-1.95.9-1.6 0-3.4-1.25-1.85-1.25-3.6-3.6-.7-.9-1.35-1.3-.65-.4-1-.4-.5 0-1 .4-.45.45-.5 1.35 0 .7.25 2.1.2 1.4.55 2.7.35 1.35.75 1.75.6.6 2.45 1.1 1.8.55 5.3.6 1.55 0 3.4-.3 1.8-.3 3.55-1 1.5-.6 2.85-1.65 1.35-1.05 2.2-2.65.9-1.6.9-3.75.05-2.5-1.55-4.7-1.6-2.15-5.45-4.1-2.65-1.35-3.95-2.25-1.35-.9-1.8-1.65-.45-.75-.4-1.55 0-1.2.75-1.95t1.9-.75q1.3 0 2.65 1 1.35 1 2.55 2.8.9 1.25 1.6 1.55.7.35 1.05.3.4 0 .8-.6t.45-1.5q0-1.3-.1-2.35Z"/></g></defs><g><use xlink:href="#a"/><use xlink:href="#b"/></g></svg>